<svg xmlns="http://www.w3.org/2000/svg" version="1.1" xmlns:xlink="http://www.w3.org/1999/xlink" xmlns:svgjs="http://svgjs.com/svgjs" width="1920" height="1080" preserveAspectRatio="none" viewBox="0 0 1920 1080"><g mask="url(&quot;#SvgjsMask1125&quot;)" fill="none"><path d="M 0,177 C 128,212.4 384,364.2 640,354 C 896,343.8 1024,130.6 1280,126 C 1536,121.4 1792,290 1920,331L1920 1080L0 1080z" fill="rgba(126, 0, 0, 1)"></path><path d="M 0,416 C 128,468 384,660.2 640,676 C 896,691.8 1024,505.4 1280,495 C 1536,484.6 1792,598.2 1920,624L1920 1080L0 1080z" fill="rgba(188, 0, 0, 1)"></path><path d="M 0,740 C 128,792.4 384,978 640,1002 C 896,1026 1024,869.8 1280,860 C 1536,850.2 1792,934.4 1920,953L1920 1080L0 1080z" fill="rgba(255, 0, 0, 1)"></path></g><defs><mask id="SvgjsMask1125"><rect width="1920" height="1080" fill="#ffffff"></rect></mask></defs></svg>